<?xml version="1.0" encoding="UTF-8"?><svg xmlns="http://www.w3.org/2000/svg" xmlns:xlink="http://www.w3.org/1999/xlink" viewBox="0 0 1366 768"><defs><style>.cls-1{opacity:.1;}.cls-2{mask:url(#mask);}.cls-3{opacity:.4;}.cls-4{fill:url(#radial-gradient);}.cls-5{isolation:isolate;}.cls-6{mix-blend-mode:multiply;opacity:.15;}</style><radialGradient id="radial-gradient" cx="683" cy="751.78" fx="683" fy="751.78" r="355" gradientTransform="translate(0 448.73) scale(1 .23)" gradientUnits="userSpaceOnUse"><stop offset="0" stop-color="#fff"/><stop offset=".03" stop-color="#f3f3f3"/><stop offset=".2" stop-color="#aaa"/><stop offset=".36" stop-color="#6d6d6d"/><stop offset=".51" stop-color="#3e3e3e"/><stop offset=".64" stop-color="#1c1c1c"/><stop offset=".75" stop-color="#070707"/><stop offset=".82" stop-color="#000"/></radialGradient><mask id="mask" x="328" y="540.11" width="710" height="163.52" maskUnits="userSpaceOnUse"><ellipse class="cls-4" cx="683" cy="621.87" rx="355" ry="81.76"/></mask></defs><g class="cls-5"><g id="Layer_1"><g class="cls-3"><g class="cls-6"><path d="M659.18,143.6c-4.48,8.82-2.13,15.11,4.19,21.75,3.03,3.18,4.33,8.98,4.57,13.69,1.15,22.31,1.86,44.66,2.34,67,.34,15.97,.07,31.96,.07,48.65,7.08-.48,13.7-.93,20.64-1.4,.17-1.65,.38-2.94,.42-4.24,.79-24.84,1-49.71,2.54-74.5,.95-15.28,3.89-30.44,6.03-45.64,.21-1.5,.68-3.52,1.75-4.25,9.43-6.45,12.77-14.29,6.03-25.34,10.81,12.92,29.59,13.79,38.46,28.77,5.4,9.11,9.57,18.29,10.65,28.9,1.73,17.08,3.63,34.15,5.72,51.2,1.66,13.61,.89,26.12-8.12,37.85-5.51,7.17-8.38,16.43-12.01,24.93-.87,2.03-.5,4.88,.04,7.17,3.02,12.97,6.34,25.88,9.4,38.85,.8,3.39,1.81,6.61-1.88,9.83-1.69,1.47-1.51,5.9-1.09,8.83,3.02,21,5.87,42.04,9.64,62.91,5.38,29.75,12.47,59.22,17,89.08,3.61,23.83,4.62,48.07,6.47,72.16,.47,6.14-.08,6.18-6.32,9.55,1.33,6.03,2.54,12.37,4.18,18.61,1.11,4.24,.1,6.69-4.13,8.36-10.23,4.05-20.7,4.35-31.26,2.27-1.33-.26-3.13-3.05-3.08-4.62,.2-6.88,1.01-13.74,1.63-21.01-2.72,.3-4.89,.54-7.34,.81-.26-.96-.72-1.79-.66-2.59,2.04-27.82-4.22-54.86-7.57-82.17-1.32-10.76-1.73-21.68-3.77-32.3-2.28-11.86-5.02-23.81-9.2-35.11-10.77-29.1-19.28-58.75-24.47-89.34-.5-2.93-1.13-5.83-1.69-8.75-.6,.05-1.19,.1-1.79,.15-.84,6.8-1.46,13.63-2.55,20.38-5.58,34.51-9.48,69.26-20.35,102.87-4.28,13.23-3.1,28.2-4.74,42.34-2.44,21.09-5.2,42.15-7.78,63.23-.38,3.13-.3,6.34-.87,9.43-.34,1.83-1.14,4.63-2.4,5.06-7.1,2.41-7.64,8.42-8.05,14.2-.38,5.36-2.76,8.08-7.88,9.37-10.61,2.67-20.93,7.68-32.23,4.23-3.49-1.07-6.64-3.25-9.95-4.93,2.11-4.12,3.63-8.73,6.5-12.21,2.79-3.38,6.98-5.61,9.67-7.66-.52-3.38-1.51-5.93-1.19-8.31,2.41-18.3,5.11-36.56,7.65-54.85,3.39-24.38,7.57-48.69,9.82-73.18,2.07-22.44,2.06-45.08,2.9-67.63,.32-8.58,.57-17.17,.53-25.75,0-1.68-1.74-3.29-2.27-5.06-.6-1.97-1.19-4.11-1.01-6.11,1.7-18.66,3.75-37.28,5.23-55.95,.28-3.49-.68-7.72-2.58-10.61-5.38-8.19-7.9-16.82-8.63-26.63-2.22-29.95,.33-59.66,3.7-89.3,1.51-13.27,7.84-24.09,21-30.28,6.58-3.09,12.11-8.41,18.12-12.72Z"/><path d="M689.33,164.68c-.91,4.01-1.72,6.97-2.21,9.97-.45,2.79-.86,5.64-.76,8.44,1.02,28.83,4.07,57.69-.71,86.45-.76,4.59-2.81,8.97-4.77,15.03-7.31-8.05-8.74-16.03-8.32-23.68,1.36-24.98,3.64-49.91,5.52-74.87,.56-7.45,1.21-14.9,1.31-22.36,.02-1.43-2.07-3.31-3.62-4.26-7.89-4.81-11.17-11.17-10.54-20.85,.34-5.2-3.36-10.71-5.42-16.01-1.37-3.51-3.88-6.77-4.42-10.37-1.03-6.83-1.83-13.88-1.28-20.72,1.82-22.8,19.22-31.04,40.83-25.38,14.54,3.81,16.14,14.66,16.67,26.35,.3,6.62-.81,13.31-1.47,19.95-.15,1.52-.61,3.57-1.67,4.33-6.67,4.76-5.07,11.87-4.38,17.92,.67,5.78-.98,10.12-3.92,14.46-3.71,5.48-7.55,10.87-10.83,15.57Z"/></g><g class="cls-2"><ellipse class="cls-1" cx="683" cy="621.87" rx="355" ry="81.76"/></g></g></g></g></svg>